# AST/ASF file generated using VICON BodyLanguage
# -----------------------------------------------
:version 1.10
:name VICON
:units
  mass 1.0
  length 0.45
  angle deg
:documentation
   .ast/.asf automatically generated from VICON data using
   VICON BodyBuilder and BodyLanguage model FoxedUp or BRILLIANT.MOD
:root
   order TX TY TZ RX RY RZ
   axis XYZ
   position 0 0 0  
   orientation 0 0 0 
:bonedata
  begin
     id 1 
     name lhipjoint
     direction 0.650112 -0.723553 0.232005 
     length 2.45805 
     axis 0 0 0  XYZ
  end
  begin
     id 2 
     name lfemur
     direction 0.34202 -0.939693 0  
     length 7.00073  
     axis 0 0 20  XYZ
    dof rx ry rz
    limits (-160.0 20.0)
           (-70.0 70.0)
           (-60.0 70.0)
  end
  begin
     id 3 
     name ltibia
     direction 0.34202 -0.939693 0   
     length 7.8748   
     axis 0 0 20   XYZ
    dof rx
    limits (-10.0 170.0)
  end
  begin
     id 4 
     name lfoot
     direction 0.0542825 -0.14914 0.987325   
     length 1.75978   
     axis -90 7.62852e-016 20   XYZ
    dof rx rz
    limits (-45.0 90.0)
           (-70.0 20.0)
  end
  begin
     id 5 
     name ltoes
     direction 1.53509e-011 -4.21906e-011 1   
     length 0.893912   
     axis -90 7.62852e-016 20   XYZ
    dof rx
    limits (-90.0 20.0)
  end
  begin
     id 6 
     name rhipjoint
     direction -0.637897 -0.733345 0.235145   
     length 2.42522  
     axis 0 0 0  XYZ 
  end
  begin
     id 7 
     name rfemur
     direction -0.34202 -0.939693 0   
     length 7.02549   
     axis 0 0 -20   XYZ
    dof rx ry rz
    limits (-160.0 20.0)
           (-70.0 70.0)
           (-70.0 60.0)
  end
  begin
     id 8 
     name rtibia
     direction -0.34202 -0.939693 0   
     length 7.71512   
     axis 0 0 -20   XYZ
    dof rx
    limits (-10.0 170.0)
 end
 begin
     id 9 
     name rfoot
     direction -0.0822618 -0.226012 0.970645   
     length 1.90014  
     axis -90 -7.62852e-016 -20   XYZ
    dof rx rz
    limits (-45.0 90.0)
           (-20.0 70.0)
  end
  begin
     id 10 
     name rtoes
     direction -1.53542e-011 -4.21872e-011 1   
     length 0.957341   
     axis -90 -7.62852e-016 -20   XYZ
    dof rx
    limits (-90.0 20.0)
  end
  begin
     id 11 
     name lowerback
     direction -0.0022947 0.999774 -0.0211557   
     length 1.89909   
     axis 0 0 0   XYZ
    dof rx ry rz
    limits (-20.0 45.0)
           (-30.0 30.0)
           (-30.0 30.0)
  end
  begin
     id 12 
     name upperback
     direction 0.0107737 0.998635 0.0511027   
     length 1.8853   
     axis 0 0 0   XYZ
    dof rx ry rz
    limits (-20.0 45.0)
           (-30.0 30.0)
           (-30.0 30.0)
  end
  begin
     id 13 
     name thorax
     direction 0.011824 0.998136 0.0598754   
     length 1.88911   
     axis 0 0 0   XYZ
    dof rx ry rz
    limits (-20.0 45.0)
           (-30.0 30.0)
           (-30.0 30.0)
  end
  begin
     id 14 
     name lowerneck
     direction -0.0685355 0.990319 0.120714   
     length 1.91222   
     axis 0 0 0   XYZ
    dof rx ry rz
    limits (-20.0 45.0)
           (-30.0 30.0)
           (-30.0 30.0)
  end
  begin
     id 15 
     name upperneck
     direction 0.0886204 0.955665 -0.280805   
     length 1.92526   
     axis 0 0 0   XYZ
    dof rx ry rz
    limits (-20.0 45.0)
           (-30.0 30.0)
           (-30.0 30.0)
  end
  begin
     id 16
     name head
     direction 0.0233423 0.993502 -0.111393  
     length 1.96056  
     axis 0 0 0   XYZ
    dof rx ry rz
    limits (-20.0 45.0)
           (-30.0 30.0)
           (-30.0 30.0)
  end
  begin
     id 17 
     name lclavicle
     direction 0.941873 0.32922 0.0670041  
     length 3.31705  
     axis 0 0 0   XYZ
    dof ry rz
    limits (-20.0 10.0)
           (0.0 20.0)
  end
  begin
     id 18 
     name lhumerus
     direction 1 -4.4898e-011 3.38707e-028   
     length 5.29277   
     axis 180 -30 -90   XYZ
    dof rx ry rz
    limits (-60.0 90.0)
           (-90.0 90.0)
           (-90.0 90.0)
  end
  begin
     id 19
     name lradius
     direction 1 -4.48952e-011 1.63213e-028   
     length 2.85226   
     axis 180 -30 -90   XYZ
    dof rx
    limits (-10.0 170.0)
  end
  begin
     id 20
     name lwrist
     direction 1 -4.49001e-011 1.27856e-027   
     length 1.42613   
     axis -1.61767e-015 90 90   XYZ
    dof ry
    limits (-180.0 0.0)
 end
  begin
     id 21 
     name lhand
     direction 1 -4.48976e-011 2.55931e-027   
     length 0.602097   
     axis -1.63363e-015 90 90   XYZ
    dof rx rz
    limits (-90.0 90.0)
           (-45.0 45.0)
  end
  begin
     id 22 
     name lfingers
     direction 1 -4.48986e-011 5.11684e-027   
     length 0.485426   
     axis -3.26723e-015 90 90   XYZ
    dof rx
    limits (0.0 90.0)
  end
  begin
     id 23
     name lthumb
     direction 0.707107 -6.34915e-011 0.707107   
     length 0.696978   
     axis -90 45 -2.25915e-014   XYZ
    dof rx rz
    limits (-45.0 45.0)
           (-45.0 45.0)
  end
  begin
     id 24 
     name rclavicle
     direction -0.939974 0.327078 0.0973096   
     length 3.10337  
     axis 0 0 0   XYZ 
    dof ry rz
    limits (-10.0 20.0)
           (-20.0 0.0)
  end
  begin
     id 25 
     name rhumerus
     direction -1 -4.48975e-011 1.83745e-027  
     length 5.13304   
     axis 180 30 90   XYZ
    dof rx ry rz
    limits (-90.0 60.0)
           (-90.0 90.0)
           (-90.0 90.0)
  end
  begin
     id 26 
     name rradius
     direction -1 -4.48977e-011 7.1775e-029   
     length 2.74305   
     axis 180 30 90   XYZ
    dof rx
    limits (-10.0 170.0)
  end
  begin
     id 27 
     name rwrist
     direction -1 -4.48977e-011 1.27963e-027   
     length 1.37152   
     axis -1.61767e-015 -90 -90   XYZ
    dof ry
    limits (-180.0 0.0)
  end
  begin
     id 28
     name rhand
     direction -1 -4.4888e-011 2.56782e-027   
     length 0.767976   
     axis -1.63363e-015 -90 -90   XYZ
    dof rx rz
    limits (-90.0 90.0)
           (-45.0 45.0)
  end
  begin
     id 29
     name rfingers
     direction -1 -4.48947e-011 5.12384e-027   
     length 0.619162   
     axis -3.26723e-015 -90 -90   XYZ
    dof rx
    limits (0.0 90.0)
  end
  begin
     id 30
     name rthumb
     direction -0.707107 -6.34857e-011 0.707107   
     length 0.888997   
     axis -90 -45 2.25915e-014   XYZ
    dof rx rz
    limits (-45.0 45.0)
           (-45.0 45.0)
  end
:hierarchy
  begin
    root lhipjoint rhipjoint lowerback
    lhipjoint lfemur
    lfemur ltibia
    ltibia lfoot
    lfoot ltoes
    rhipjoint rfemur
    rfemur rtibia
    rtibia rfoot
    rfoot rtoes
    lowerback upperback
    upperback thorax
    thorax lowerneck lclavicle rclavicle
    lowerneck upperneck
    upperneck head
    lclavicle lhumerus
    lhumerus lradius
    lradius lwrist
    lwrist lhand lthumb
    lhand lfingers
    rclavicle rhumerus
    rhumerus rradius
    rradius rwrist
    rwrist rhand rthumb
    rhand rfingers
  end

#!OML:ASF F:\VICON\USERDATA\INSTALL\rory3\rory3.ASF
:FULLY-SPECIFIED
:DEGREES
805
root -0.343908 16.4919 -0.102975 -10.9838 8.56486 0.891255
lowerback -5.98237 -0.775277 -1.93608
upperback 4.32724 -0.857087 0.0382024
thorax 7.9372 -0.527148 1.01757
lowerneck 3.01879 -9.14589 -22.258
upperneck 31.3526 -15.6276 13.3272
head 12.9088 -8.56769 7.2174
rclavicle 3.08551e-014 2.14687e-014
rhumerus 4.03139 -18.987 -27.6027
rradius 109.967
rwrist 10.1805
rhand -14.118 11.3573
rfingers 7.12502
rthumb 12.0154 -18.2778
lclavicle 3.08551e-014 2.14687e-014
lhumerus 17.1836 0.64957 28.4797
lradius 98.7808
lwrist 14.814
lhand -14.8421 24.2657
lfingers 7.12502
lthumb 11.317 53.9404
rfemur 1.65313 -0.403139 19.2502
rtibia 38.1047
rfoot -27.4935 -9.99352
rtoes -16.6957
lfemur -1.96777 -6.98125 -18.1768
ltibia 38.1122
lfoot -24.1797 -4.00395
ltoes -20.1618
806
root -0.348385 16.4917 -0.107308 -10.915 8.52063 0.753378
lowerback -5.93536 -0.768137 -1.87921
upperback 4.32033 -0.856974 0.0793671
thorax 7.90188 -0.524961 1.0296
lowerneck 2.9172 -9.11779 -22.3656
upperneck 31.2785 -15.5988 13.4926
head 12.9174 -8.5478 7.30255
rclavicle -8.44835e-016 -2.18663e-015
rhumerus 3.98551 -18.7177 -27.8025
rradius 109.96
rwrist 10.1823
rhand -13.8436 11.3008
rfingers 7.12502
rthumb 12.2799 -18.3186
lclavicle -8.44835e-016 -2.18663e-015
lhumerus 17.5929 0.869785 28.7958
lradius 99.118
lwrist 14.8573
lhand -15.0211 24.2664
lfingers 7.12502
lthumb 11.1444 53.9504
rfemur 1.5241 -0.438546 19.406
rtibia 38.0994
rfoot -27.4691 -9.91862
rtoes -15.6945
lfemur -2.11982 -6.99719 -17.9995
ltibia 38.1947
lfoot -24.1969 -3.9353
ltoes -20.2065
807
root -0.353812 16.4931 -0.112268 -10.8844 8.4396 0.635057
lowerback -5.80398 -0.74407 -1.86033
upperback 4.29457 -0.832602 0.123889
thorax 7.79698 -0.512432 1.07061
lowerneck 2.88777 -9.08421 -22.418
upperneck 31.1451 -15.553 13.5922
head 12.8688 -8.52089 7.35388
rclavicle 3.76448e-015 -3.47873e-015
rhumerus 3.86419 -18.3374 -27.9714
rradius 109.999
rwrist 10.047
rhand -13.6962 11.2282
rfingers 7.12502
rthumb 12.422 -18.3827
lclavicle 3.76448e-015 -3.47873e-015
lhumerus 17.9996 0.961521 29.0272
lradius 99.4666
lwrist 15.1342
lhand -15.215 24.2037
lfingers 7.12502
lthumb 10.9574 53.8977
rfemur 1.4247 -0.423781 19.5564
rtibia 38.095
rfoot -27.5097 -9.82658
rtoes -15.3503
lfemur -2.22471 -6.98554 -17.8352
ltibia 38.2652
lfoot -24.2008 -3.99393
ltoes -19.7801
808
root -0.359482 16.4942 -0.117487 -10.8524 8.3162 0.5712
lowerback -5.70766 -0.696629 -1.91827
upperback 4.28423 -0.769015 0.171501
thorax 7.72926 -0.485257 1.16223
lowerneck 2.9694 -9.07148 -22.452
upperneck 30.8627 -15.535 13.6587
head 12.7349 -8.50822 7.38117
rclavicle -2.9445e-015 1.46604e-014
rhumerus 3.69777 -17.9848 -28.1334
rradius 110.034
rwrist 9.86201
rhand -13.4316 11.2593
rfingers 7.12502
rthumb 12.6772 -18.336
lclavicle -2.9445e-015 1.46604e-014
lhumerus 18.4308 0.953428 29.1731
lradius 99.7993
lwrist 15.3481
lhand -15.0124 24.2057
lfingers 7.12502
lthumb 11.1528 53.8893
rfemur 1.33352 -0.373636 19.6525
rtibia 38.0869
rfoot -27.4713 -9.77687
rtoes -15.4777
lfemur -2.29918 -6.96486 -17.7349
ltibia 38.3214
lfoot -24.1715 -3.92057
ltoes -19.7819
809
root -0.365678 16.4941 -0.122882 -10.7958 8.21586 0.543557
lowerback -5.64388 -0.668261 -2.02243
upperback 4.269 -0.725729 0.211376
thorax 7.67652 -0.470291 1.26866
lowerneck 3.00693 -9.03305 -22.5265
upperneck 30.6428 -15.4977 13.7997
head 12.6442 -8.48543 7.45139
rclavicle -3.4396e-014 -1.11816e-014
rhumerus 3.5484 -17.5842 -28.3541
rradius 110.025
rwrist 10.0598
rhand -13.104 11.3543
rfingers 7.12502
rthumb 12.993 -18.2211
lclavicle -3.4396e-014 -1.11816e-014
lhumerus 18.8424 0.928298 29.2538
lradius 100.16
lwrist 15.5453
lhand -14.447 24.2985
lfingers 7.12502
lthumb 11.698 53.9519
rfemur 1.22814 -0.357077 19.7005
rtibia 38.0759
rfoot -27.3916 -9.71184
rtoes -15.3947
lfemur -2.39542 -6.916 -17.6596
ltibia 38.3651
lfoot -24.1602 -3.92568
ltoes -19.7439
810
root -0.370331 16.4945 -0.12873 -10.7753 8.11887 0.50072
lowerback -5.56307 -0.642755 -2.08613
upperback 4.31095 -0.690077 0.253795
thorax 7.67479 -0.45785 1.35388
lowerneck 2.929 -9.02556 -22.6123
upperneck 30.4053 -15.4899 13.9793
head 12.5816 -8.46817 7.52837
rclavicle 3.5452e-014 -9.93923e-015
rhumerus 3.46963 -17.1682 -28.5802
rradius 109.974
rwrist 10.6367
rhand -13.0933 11.397
rfingers 7.12502
rthumb 13.0033 -18.1778
lclavicle 3.5452e-014 -9.93923e-015
lhumerus 19.4069 0.90314 29.3512
lradius 100.357
lwrist 15.5834
lhand -14.125 24.3345
lfingers 7.12502
lthumb 12.0085 53.97
rfemur 1.16896 -0.367733 19.7538
rtibia 38.0669
rfoot -27.3725 -9.66615
rtoes -15.5988
lfemur -2.43551 -6.92843 -17.5991
ltibia 38.3756
lfoot -24.2222 -3.73864
ltoes -20.0303
